<mxfile host="app.diagrams.net" modified="2024-04-21T22:12:05.210Z" agent="Mozilla/5.0 (Windows NT 10.0; Win64; x64) AppleWebKit/537.36 (KHTML, like Gecko) Chrome/123.0.0.0 Safari/537.36" version="23.1.5" etag="g6iH-b5IPouZ5zcXHoDw" type="device">
  <diagram id="Vj8MwQgC_tUXzdvPFdN6" name="PÃ¡gina-1">
    <mxGraphModel dx="2874" dy="1498" grid="1" gridSize="10" guides="1" tooltips="1" connect="1" arrows="1" fold="1" page="0" pageScale="1" pageWidth="827" pageHeight="1169" background="none" math="0" shadow="0">
      <root>
        <mxCell id="0" />
        <mxCell id="1" parent="0" />
        <mxCell id="node13" value="&lt;p style=&quot;margin: 4px 0px 0px; text-align: center; font-size: 12px;&quot;&gt;&lt;b style=&quot;font-size: 12px;&quot;&gt;actor&lt;/b&gt;&lt;/p&gt;&lt;hr style=&quot;font-size: 12px;&quot;&gt;&lt;p style=&quot;margin: 0px 0px 0px 4px; line-height: 1.6; font-size: 12px;&quot;&gt; first_name: varchar(45)&lt;br style=&quot;font-size: 12px;&quot;&gt; last_name: varchar(45)&lt;br style=&quot;font-size: 12px;&quot;&gt; last_update: timestamp&lt;/p&gt;&lt;hr style=&quot;font-size: 12px;&quot;&gt;&lt;p style=&quot;margin: 0px 0px 0px 4px; line-height: 1.6; font-size: 12px;&quot;&gt; actor_id: integer&lt;/p&gt;" style="verticalAlign=top;align=left;overflow=fill;fontSize=12;fontFamily=Helvetica;html=1;rounded=1;shadow=0;comic=0;labelBackgroundColor=none;strokeWidth=1;fillColor=#A8DADC;strokeColor=#457B9D;fontColor=#1D3557;" parent="1" vertex="1">
          <mxGeometry x="-128" y="-80" width="158" height="131" as="geometry" />
        </mxCell>
        <mxCell id="node3" value="&lt;p style=&quot;margin: 4px 0px 0px; text-align: center; font-size: 12px;&quot;&gt;&lt;b style=&quot;font-size: 12px;&quot;&gt;address&lt;/b&gt;&lt;/p&gt;&lt;hr style=&quot;font-size: 12px;&quot;&gt;&lt;p style=&quot;margin: 0px 0px 0px 4px; line-height: 1.6; font-size: 12px;&quot;&gt; address: varchar(50)&lt;br style=&quot;font-size: 12px;&quot;&gt; address2: varchar(50)&lt;br style=&quot;font-size: 12px;&quot;&gt; district: varchar(20)&lt;br style=&quot;font-size: 12px;&quot;&gt; city_id: smallint&lt;br style=&quot;font-size: 12px;&quot;&gt; postal_code: varchar(10)&lt;br style=&quot;font-size: 12px;&quot;&gt; phone: varchar(20)&lt;br style=&quot;font-size: 12px;&quot;&gt; last_update: timestamp&lt;/p&gt;&lt;hr style=&quot;font-size: 12px;&quot;&gt;&lt;p style=&quot;margin: 0px 0px 0px 4px; line-height: 1.6; font-size: 12px;&quot;&gt; address_id: integer&lt;/p&gt;" style="verticalAlign=top;align=left;overflow=fill;fontSize=12;fontFamily=Helvetica;html=1;rounded=1;shadow=0;comic=0;labelBackgroundColor=none;strokeWidth=1;fillColor=#A8DADC;strokeColor=#457B9D;fontColor=#1D3557;" parent="1" vertex="1">
          <mxGeometry x="-309" y="64" width="161" height="209" as="geometry" />
        </mxCell>
        <mxCell id="node7" value="&lt;p style=&quot;margin: 4px 0px 0px; text-align: center; font-size: 12px;&quot;&gt;&lt;b style=&quot;font-size: 12px;&quot;&gt;category&lt;/b&gt;&lt;/p&gt;&lt;hr style=&quot;font-size: 12px;&quot;&gt;&lt;p style=&quot;margin: 0px 0px 0px 4px; line-height: 1.6; font-size: 12px;&quot;&gt; name: varchar(25)&lt;br style=&quot;font-size: 12px;&quot;&gt; last_update: timestamp&lt;/p&gt;&lt;hr style=&quot;font-size: 12px;&quot;&gt;&lt;p style=&quot;margin: 0px 0px 0px 4px; line-height: 1.6; font-size: 12px;&quot;&gt; category_id: integer&lt;/p&gt;" style="verticalAlign=top;align=left;overflow=fill;fontSize=12;fontFamily=Helvetica;html=1;rounded=1;shadow=0;comic=0;labelBackgroundColor=none;strokeWidth=1;fillColor=#A8DADC;strokeColor=#457B9D;fontColor=#1D3557;" parent="1" vertex="1">
          <mxGeometry x="390" y="174" width="158" height="107" as="geometry" />
        </mxCell>
        <mxCell id="node14" value="&lt;p style=&quot;margin: 4px 0px 0px; text-align: center; font-size: 12px;&quot;&gt;&lt;b style=&quot;font-size: 12px;&quot;&gt;city&lt;/b&gt;&lt;/p&gt;&lt;hr style=&quot;font-size: 12px;&quot;&gt;&lt;p style=&quot;margin: 0px 0px 0px 4px; line-height: 1.6; font-size: 12px;&quot;&gt; city: varchar(50)&lt;br style=&quot;font-size: 12px;&quot;&gt; country_id: smallint&lt;br style=&quot;font-size: 12px;&quot;&gt; last_update: timestamp&lt;/p&gt;&lt;hr style=&quot;font-size: 12px;&quot;&gt;&lt;p style=&quot;margin: 0px 0px 0px 4px; line-height: 1.6; font-size: 12px;&quot;&gt; city_id: integer&lt;/p&gt;" style="verticalAlign=top;align=left;overflow=fill;fontSize=12;fontFamily=Helvetica;html=1;rounded=1;shadow=0;comic=0;labelBackgroundColor=none;strokeWidth=1;fillColor=#A8DADC;strokeColor=#457B9D;fontColor=#1D3557;" parent="1" vertex="1">
          <mxGeometry x="-308" y="-80" width="158" height="131" as="geometry" />
        </mxCell>
        <mxCell id="node4" value="&lt;p style=&quot;margin: 4px 0px 0px; text-align: center; font-size: 12px;&quot;&gt;&lt;b style=&quot;font-size: 12px;&quot;&gt;country&lt;/b&gt;&lt;/p&gt;&lt;hr style=&quot;font-size: 12px;&quot;&gt;&lt;p style=&quot;margin: 0px 0px 0px 4px; line-height: 1.6; font-size: 12px;&quot;&gt; country: varchar(50)&lt;br style=&quot;font-size: 12px;&quot;&gt; last_update: timestamp&lt;/p&gt;&lt;hr style=&quot;font-size: 12px;&quot;&gt;&lt;p style=&quot;margin: 0px 0px 0px 4px; line-height: 1.6; font-size: 12px;&quot;&gt; country_id: integer&lt;/p&gt;" style="verticalAlign=top;align=left;overflow=fill;fontSize=12;fontFamily=Helvetica;html=1;rounded=1;shadow=0;comic=0;labelBackgroundColor=none;strokeWidth=1;fillColor=#A8DADC;strokeColor=#457B9D;fontColor=#1D3557;" parent="1" vertex="1">
          <mxGeometry x="-308" y="-202" width="158" height="107" as="geometry" />
        </mxCell>
        <mxCell id="node11" value="&lt;p style=&quot;margin: 4px 0px 0px; text-align: center; font-size: 12px;&quot;&gt;&lt;b style=&quot;font-size: 12px;&quot;&gt;customer&lt;/b&gt;&lt;/p&gt;&lt;hr style=&quot;font-size: 12px;&quot;&gt;&lt;p style=&quot;margin: 0px 0px 0px 4px; line-height: 1.6; font-size: 12px;&quot;&gt; store_id: smallint&lt;br style=&quot;font-size: 12px;&quot;&gt; first_name: varchar(45)&lt;br style=&quot;font-size: 12px;&quot;&gt; last_name: varchar(45)&lt;br style=&quot;font-size: 12px;&quot;&gt; email: varchar(50)&lt;br style=&quot;font-size: 12px;&quot;&gt; address_id: smallint&lt;br style=&quot;font-size: 12px;&quot;&gt; activebool: boolean&lt;br style=&quot;font-size: 12px;&quot;&gt; create_date: date&lt;br style=&quot;font-size: 12px;&quot;&gt; last_update: timestamp&lt;br style=&quot;font-size: 12px;&quot;&gt; active: integer&lt;/p&gt;&lt;hr style=&quot;font-size: 12px;&quot;&gt;&lt;p style=&quot;margin: 0px 0px 0px 4px; line-height: 1.6; font-size: 12px;&quot;&gt; customer_id: integer&lt;/p&gt;" style="verticalAlign=top;align=left;overflow=fill;fontSize=12;fontFamily=Helvetica;html=1;rounded=1;shadow=0;comic=0;labelBackgroundColor=none;strokeWidth=1;fillColor=#A8DADC;strokeColor=#457B9D;fontColor=#1D3557;" parent="1" vertex="1">
          <mxGeometry x="-312" y="319" width="158" height="253" as="geometry" />
        </mxCell>
        <mxCell id="node0" value="&lt;p style=&quot;margin: 4px 0px 0px; text-align: center; font-size: 12px;&quot;&gt;&lt;b style=&quot;font-size: 12px;&quot;&gt;film&lt;/b&gt;&lt;/p&gt;&lt;hr style=&quot;font-size: 12px;&quot;&gt;&lt;p style=&quot;margin: 0px 0px 0px 4px; line-height: 1.6; font-size: 12px;&quot;&gt; title: varchar(255)&lt;br style=&quot;font-size: 12px;&quot;&gt; description: text&lt;br style=&quot;font-size: 12px;&quot;&gt; release_year: year&lt;br style=&quot;font-size: 12px;&quot;&gt; language_id: smallint&lt;br style=&quot;font-size: 12px;&quot;&gt; rental_duration: smallint&lt;br style=&quot;font-size: 12px;&quot;&gt; rental_rate: numeric(4,2)&lt;br style=&quot;font-size: 12px;&quot;&gt; length: smallint&lt;br style=&quot;font-size: 12px;&quot;&gt; replacement_cost: numeric(5,2)&lt;br style=&quot;font-size: 12px;&quot;&gt; rating: mpaa_rating&lt;br style=&quot;font-size: 12px;&quot;&gt; last_update: timestamp&lt;br style=&quot;font-size: 12px;&quot;&gt; special_features: text[]&lt;br style=&quot;font-size: 12px;&quot;&gt; fulltext: tsvector&lt;/p&gt;&lt;hr style=&quot;font-size: 12px;&quot;&gt;&lt;p style=&quot;margin: 0px 0px 0px 4px; line-height: 1.6; font-size: 12px;&quot;&gt; film_id: integer&lt;/p&gt;" style="verticalAlign=top;align=left;overflow=fill;fontSize=12;fontFamily=Helvetica;html=1;rounded=1;shadow=0;comic=0;labelBackgroundColor=none;strokeWidth=1;fillColor=#A8DADC;strokeColor=#457B9D;fontColor=#1D3557;" parent="1" vertex="1">
          <mxGeometry x="159" y="-179" width="200" height="319" as="geometry" />
        </mxCell>
        <mxCell id="node10" value="&lt;p style=&quot;margin: 4px 0px 0px; text-align: center; font-size: 12px;&quot;&gt;&lt;b style=&quot;font-size: 12px;&quot;&gt;film_actor&lt;/b&gt;&lt;/p&gt;&lt;hr style=&quot;font-size: 12px;&quot;&gt;&lt;p style=&quot;margin: 0px 0px 0px 4px; line-height: 1.6; font-size: 12px;&quot;&gt; last_update: timestamp&lt;/p&gt;&lt;hr style=&quot;font-size: 12px;&quot;&gt;&lt;p style=&quot;margin: 0px 0px 0px 4px; line-height: 1.6; font-size: 12px;&quot;&gt; actor_id: smallint&lt;br style=&quot;font-size: 12px;&quot;&gt; film_id: smallint&lt;/p&gt;" style="verticalAlign=top;align=left;overflow=fill;fontSize=12;fontFamily=Helvetica;html=1;rounded=1;shadow=0;comic=0;labelBackgroundColor=none;strokeWidth=1;fillColor=#A8DADC;strokeColor=#457B9D;fontColor=#1D3557;" parent="1" vertex="1">
          <mxGeometry x="-30" y="80" width="158" height="107" as="geometry" />
        </mxCell>
        <mxCell id="node9" value="&lt;p style=&quot;margin: 4px 0px 0px; text-align: center; font-size: 12px;&quot;&gt;&lt;b style=&quot;font-size: 12px;&quot;&gt;film_category&lt;/b&gt;&lt;/p&gt;&lt;hr style=&quot;font-size: 12px;&quot;&gt;&lt;p style=&quot;margin: 0px 0px 0px 4px; line-height: 1.6; font-size: 12px;&quot;&gt; last_update: timestamp&lt;/p&gt;&lt;hr style=&quot;font-size: 12px;&quot;&gt;&lt;p style=&quot;margin: 0px 0px 0px 4px; line-height: 1.6; font-size: 12px;&quot;&gt; film_id: smallint&lt;br style=&quot;font-size: 12px;&quot;&gt; category_id: smallint&lt;/p&gt;" style="verticalAlign=top;align=left;overflow=fill;fontSize=12;fontFamily=Helvetica;html=1;rounded=1;shadow=0;comic=0;labelBackgroundColor=none;strokeWidth=1;fillColor=#A8DADC;strokeColor=#457B9D;fontColor=#1D3557;" parent="1" vertex="1">
          <mxGeometry x="388" y="6" width="162" height="114" as="geometry" />
        </mxCell>
        <mxCell id="node5" value="&lt;p style=&quot;margin: 4px 0px 0px; text-align: center; font-size: 12px;&quot;&gt;&lt;b style=&quot;font-size: 12px;&quot;&gt;inventory&lt;/b&gt;&lt;/p&gt;&lt;hr style=&quot;font-size: 12px;&quot;&gt;&lt;p style=&quot;margin: 0px 0px 0px 4px; line-height: 1.6; font-size: 12px;&quot;&gt; film_id: smallint&lt;br style=&quot;font-size: 12px;&quot;&gt; store_id: smallint&lt;br style=&quot;font-size: 12px;&quot;&gt; last_update: timestamp&lt;/p&gt;&lt;hr style=&quot;font-size: 12px;&quot;&gt;&lt;p style=&quot;margin: 0px 0px 0px 4px; line-height: 1.6; font-size: 12px;&quot;&gt; inventory_id: integer&lt;/p&gt;" style="verticalAlign=top;align=left;overflow=fill;fontSize=12;fontFamily=Helvetica;html=1;rounded=1;shadow=0;comic=0;labelBackgroundColor=none;strokeWidth=1;fillColor=#A8DADC;strokeColor=#457B9D;fontColor=#1D3557;" parent="1" vertex="1">
          <mxGeometry x="159" y="187" width="158" height="131" as="geometry" />
        </mxCell>
        <mxCell id="node1" value="&lt;p style=&quot;margin: 4px 0px 0px; text-align: center; font-size: 12px;&quot;&gt;&lt;b style=&quot;font-size: 12px;&quot;&gt;language&lt;/b&gt;&lt;/p&gt;&lt;hr style=&quot;font-size: 12px;&quot;&gt;&lt;p style=&quot;margin: 0px 0px 0px 4px; line-height: 1.6; font-size: 12px;&quot;&gt; name: char(20)&lt;br style=&quot;font-size: 12px;&quot;&gt; last_update: timestamp&lt;/p&gt;&lt;hr style=&quot;font-size: 12px;&quot;&gt;&lt;p style=&quot;margin: 0px 0px 0px 4px; line-height: 1.6; font-size: 12px;&quot;&gt; language_id: integer&lt;/p&gt;" style="verticalAlign=top;align=left;overflow=fill;fontSize=12;fontFamily=Helvetica;html=1;rounded=1;shadow=0;comic=0;labelBackgroundColor=none;strokeWidth=1;fillColor=#A8DADC;strokeColor=#457B9D;fontColor=#1D3557;" parent="1" vertex="1">
          <mxGeometry x="-128" y="-202" width="158" height="107" as="geometry" />
        </mxCell>
        <mxCell id="node6" value="&lt;p style=&quot;margin: 4px 0px 0px; text-align: center; font-size: 12px;&quot;&gt;&lt;b style=&quot;font-size: 12px;&quot;&gt;payment&lt;/b&gt;&lt;/p&gt;&lt;hr style=&quot;font-size: 12px;&quot;&gt;&lt;p style=&quot;margin: 0px 0px 0px 4px; line-height: 1.6; font-size: 12px;&quot;&gt; customer_id: smallint&lt;br style=&quot;font-size: 12px;&quot;&gt; staff_id: smallint&lt;br style=&quot;font-size: 12px;&quot;&gt; rental_id: integer&lt;br style=&quot;font-size: 12px;&quot;&gt; amount: numeric(5,2)&lt;br style=&quot;font-size: 12px;&quot;&gt; payment_date: timestamp&lt;/p&gt;&lt;hr style=&quot;font-size: 12px;&quot;&gt;&lt;p style=&quot;margin: 0px 0px 0px 4px; line-height: 1.6; font-size: 12px;&quot;&gt; payment_id: integer&lt;/p&gt;" style="verticalAlign=top;align=left;overflow=fill;fontSize=12;fontFamily=Helvetica;html=1;rounded=1;shadow=0;comic=0;labelBackgroundColor=none;strokeWidth=1;fillColor=#A8DADC;strokeColor=#457B9D;fontColor=#1D3557;" parent="1" vertex="1">
          <mxGeometry x="-319" y="635" width="173" height="165" as="geometry" />
        </mxCell>
        <mxCell id="node12" value="&lt;p style=&quot;margin: 4px 0px 0px; text-align: center; font-size: 12px;&quot;&gt;&lt;b style=&quot;font-size: 12px;&quot;&gt;rental&lt;/b&gt;&lt;/p&gt;&lt;hr style=&quot;font-size: 12px;&quot;&gt;&lt;p style=&quot;margin: 0px 0px 0px 4px; line-height: 1.6; font-size: 12px;&quot;&gt; rental_date: timestamp&lt;br style=&quot;font-size: 12px;&quot;&gt; inventory_id: integer&lt;br style=&quot;font-size: 12px;&quot;&gt; customer_id: smallint&lt;br style=&quot;font-size: 12px;&quot;&gt; return_date: timestamp&lt;br style=&quot;font-size: 12px;&quot;&gt; staff_id: smallint&lt;br style=&quot;font-size: 12px;&quot;&gt; last_update: timestamp&lt;/p&gt;&lt;hr style=&quot;font-size: 12px;&quot;&gt;&lt;p style=&quot;margin: 0px 0px 0px 4px; line-height: 1.6; font-size: 12px;&quot;&gt; rental_id: integer&lt;/p&gt;" style="verticalAlign=top;align=left;overflow=fill;fontSize=12;fontFamily=Helvetica;html=1;rounded=1;shadow=0;comic=0;labelBackgroundColor=none;strokeWidth=1;fillColor=#A8DADC;strokeColor=#457B9D;fontColor=#1D3557;" parent="1" vertex="1">
          <mxGeometry x="-66" y="285" width="159" height="187" as="geometry" />
        </mxCell>
        <mxCell id="node2" value="&lt;p style=&quot;margin: 4px 0px 0px; text-align: center; font-size: 12px;&quot;&gt;&lt;b style=&quot;font-size: 12px;&quot;&gt;staff&lt;/b&gt;&lt;/p&gt;&lt;hr style=&quot;font-size: 12px;&quot;&gt;&lt;p style=&quot;margin: 0px 0px 0px 4px; line-height: 1.6; font-size: 12px;&quot;&gt; first_name: varchar(45)&lt;br style=&quot;font-size: 12px;&quot;&gt; last_name: varchar(45)&lt;br style=&quot;font-size: 12px;&quot;&gt; address_id: smallint&lt;br style=&quot;font-size: 12px;&quot;&gt; email: varchar(50)&lt;br style=&quot;font-size: 12px;&quot;&gt; store_id: smallint&lt;br style=&quot;font-size: 12px;&quot;&gt; active: boolean&lt;br style=&quot;font-size: 12px;&quot;&gt; username: varchar(16)&lt;br style=&quot;font-size: 12px;&quot;&gt; password: varchar(40)&lt;br style=&quot;font-size: 12px;&quot;&gt; last_update: timestamp&lt;br style=&quot;font-size: 12px;&quot;&gt; picture: bytea&lt;/p&gt;&lt;hr style=&quot;font-size: 12px;&quot;&gt;&lt;p style=&quot;margin: 0px 0px 0px 4px; line-height: 1.6; font-size: 12px;&quot;&gt; staff_id: integer&lt;/p&gt;" style="verticalAlign=top;align=left;overflow=fill;fontSize=12;fontFamily=Helvetica;html=1;rounded=1;shadow=0;comic=0;labelBackgroundColor=none;strokeWidth=1;fillColor=#A8DADC;strokeColor=#457B9D;fontColor=#1D3557;" parent="1" vertex="1">
          <mxGeometry x="-560" y="31" width="158" height="275" as="geometry" />
        </mxCell>
        <mxCell id="node8" value="&lt;p style=&quot;margin: 4px 0px 0px; text-align: center; font-size: 12px;&quot;&gt;&lt;b style=&quot;font-size: 12px;&quot;&gt;store&lt;/b&gt;&lt;/p&gt;&lt;hr style=&quot;font-size: 12px;&quot;&gt;&lt;p style=&quot;margin: 0px 0px 0px 4px; line-height: 1.6; font-size: 12px;&quot;&gt; manager_staff_id: smallint&lt;br style=&quot;font-size: 12px;&quot;&gt; address_id: smallint&lt;br style=&quot;font-size: 12px;&quot;&gt; last_update: timestamp&lt;/p&gt;&lt;hr style=&quot;font-size: 12px;&quot;&gt;&lt;p style=&quot;margin: 0px 0px 0px 4px; line-height: 1.6; font-size: 12px;&quot;&gt; store_id: integer&lt;/p&gt;" style="verticalAlign=top;align=left;overflow=fill;fontSize=12;fontFamily=Helvetica;html=1;rounded=1;shadow=0;comic=0;labelBackgroundColor=none;strokeWidth=1;fillColor=#A8DADC;strokeColor=#457B9D;fontColor=#1D3557;" parent="1" vertex="1">
          <mxGeometry x="-499" y="360" width="173" height="131" as="geometry" />
        </mxCell>
        <mxCell id="edge4" value="" style="html=1;rounded=1;edgeStyle=orthogonalEdgeStyle;dashed=0;startArrow=none;endArrow=block;endSize=12;strokeColor=#457B9D;exitX=0.500;exitY=0.000;exitDx=0;exitDy=0;entryX=0.500;entryY=1.000;entryDx=0;entryDy=0;labelBackgroundColor=none;fontColor=default;" parent="1" source="node3" target="node14" edge="1">
          <mxGeometry width="50" height="50" relative="1" as="geometry">
            <Array as="points" />
          </mxGeometry>
        </mxCell>
        <mxCell id="label26" value="city_id" style="edgeLabel;resizable=0;html=1;align=left;verticalAlign=top;strokeColor=#457B9D;rounded=1;labelBackgroundColor=none;fontColor=#1D3557;" parent="edge4" vertex="1" connectable="0">
          <mxGeometry x="-267" y="42" as="geometry" />
        </mxCell>
        <mxCell id="edge2" value="" style="html=1;rounded=1;edgeStyle=orthogonalEdgeStyle;dashed=0;startArrow=none;endArrow=block;endSize=12;strokeColor=#457B9D;exitX=0.500;exitY=0.000;exitDx=0;exitDy=0;entryX=0.500;entryY=1.000;entryDx=0;entryDy=0;labelBackgroundColor=none;fontColor=default;" parent="1" source="node14" target="node4" edge="1">
          <mxGeometry width="50" height="50" relative="1" as="geometry">
            <Array as="points" />
          </mxGeometry>
        </mxCell>
        <mxCell id="label14" value="country_id" style="edgeLabel;resizable=0;html=1;align=left;verticalAlign=top;strokeColor=#457B9D;rounded=1;labelBackgroundColor=none;fontColor=#1D3557;" parent="edge2" vertex="1" connectable="0">
          <mxGeometry x="-289" y="-102" as="geometry" />
        </mxCell>
        <mxCell id="edge11" value="" style="html=1;rounded=1;edgeStyle=orthogonalEdgeStyle;dashed=0;startArrow=none;endArrow=block;endSize=12;strokeColor=#457B9D;exitX=0.500;exitY=0.000;exitDx=0;exitDy=0;entryX=0.474;entryY=1.000;entryDx=0;entryDy=0;labelBackgroundColor=none;fontColor=default;" parent="1" source="node11" target="node3" edge="1">
          <mxGeometry width="50" height="50" relative="1" as="geometry">
            <Array as="points" />
          </mxGeometry>
        </mxCell>
        <mxCell id="label68" value="address_id" style="edgeLabel;resizable=0;html=1;align=left;verticalAlign=top;strokeColor=#457B9D;rounded=1;labelBackgroundColor=none;fontColor=#1D3557;" parent="edge11" vertex="1" connectable="0">
          <mxGeometry x="-228.5" y="285" as="geometry" />
        </mxCell>
        <mxCell id="edge16" value="" style="html=1;rounded=1;edgeStyle=orthogonalEdgeStyle;dashed=0;startArrow=none;endArrow=block;endSize=12;strokeColor=#457B9D;exitX=0.000;exitY=0.128;exitDx=0;exitDy=0;entryX=1.000;entryY=0.645;entryDx=0;entryDy=0;labelBackgroundColor=none;fontColor=default;" parent="1" source="node0" target="node1" edge="1">
          <mxGeometry width="50" height="50" relative="1" as="geometry">
            <Array as="points">
              <mxPoint x="159" y="-133" />
            </Array>
          </mxGeometry>
        </mxCell>
        <mxCell id="label98" value="language_id" style="edgeLabel;resizable=0;html=1;align=left;verticalAlign=top;strokeColor=#457B9D;rounded=1;labelBackgroundColor=none;fontColor=#1D3557;" parent="edge16" vertex="1" connectable="0">
          <mxGeometry x="70" y="-160" as="geometry" />
        </mxCell>
        <mxCell id="edge12" value="" style="html=1;rounded=1;edgeStyle=orthogonalEdgeStyle;dashed=0;startArrow=none;endArrow=block;endSize=12;strokeColor=#457B9D;exitX=0.000;exitY=0.502;exitDx=0;exitDy=0;entryX=0.500;entryY=1.000;entryDx=0;entryDy=0;labelBackgroundColor=none;fontColor=default;" parent="1" source="node10" target="node13" edge="1">
          <mxGeometry width="50" height="50" relative="1" as="geometry">
            <Array as="points">
              <mxPoint x="-49" y="137" />
            </Array>
          </mxGeometry>
        </mxCell>
        <mxCell id="label74" value="actor_id" style="edgeLabel;resizable=0;html=1;align=left;verticalAlign=top;strokeColor=#457B9D;rounded=1;labelBackgroundColor=none;fontColor=#1D3557;" parent="edge12" vertex="1" connectable="0">
          <mxGeometry x="-94" y="113" as="geometry" />
        </mxCell>
        <mxCell id="edge10" value="" style="html=1;rounded=1;edgeStyle=orthogonalEdgeStyle;dashed=0;startArrow=none;endArrow=block;endSize=12;strokeColor=#457B9D;exitX=1.000;exitY=0.347;exitDx=0;exitDy=0;entryX=0.000;entryY=0.946;entryDx=0;entryDy=0;labelBackgroundColor=none;fontColor=default;" parent="1" source="node10" target="node0" edge="1">
          <mxGeometry width="50" height="50" relative="1" as="geometry">
            <Array as="points">
              <mxPoint x="127" y="122" />
              <mxPoint x="127" y="123" />
            </Array>
          </mxGeometry>
        </mxCell>
        <mxCell id="label62" value="film_id" style="edgeLabel;resizable=0;html=1;align=left;verticalAlign=top;strokeColor=#457B9D;rounded=1;labelBackgroundColor=none;fontColor=#1D3557;" parent="edge10" vertex="1" connectable="0">
          <mxGeometry x="130" y="130" as="geometry" />
        </mxCell>
        <mxCell id="edge1" value="" style="html=1;rounded=1;edgeStyle=orthogonalEdgeStyle;dashed=0;startArrow=none;endArrow=block;endSize=12;strokeColor=#457B9D;exitX=0.500;exitY=1.000;exitDx=0;exitDy=0;entryX=0.500;entryY=0.000;entryDx=0;entryDy=0;labelBackgroundColor=none;fontColor=default;" parent="1" source="node9" target="node7" edge="1">
          <mxGeometry width="50" height="50" relative="1" as="geometry">
            <Array as="points" />
          </mxGeometry>
        </mxCell>
        <mxCell id="label8" value="category_id" style="edgeLabel;resizable=0;html=1;align=left;verticalAlign=top;strokeColor=#457B9D;rounded=1;labelBackgroundColor=none;fontColor=#1D3557;" parent="edge1" vertex="1" connectable="0">
          <mxGeometry x="469" y="130" as="geometry" />
        </mxCell>
        <mxCell id="edge3" value="" style="html=1;rounded=1;edgeStyle=orthogonalEdgeStyle;dashed=0;startArrow=none;endArrow=block;endSize=12;strokeColor=#457B9D;exitX=0.500;exitY=0.000;exitDx=0;exitDy=0;entryX=1.000;entryY=0.445;entryDx=0;entryDy=0;labelBackgroundColor=none;fontColor=default;" parent="1" source="node9" target="node0" edge="1">
          <mxGeometry width="50" height="50" relative="1" as="geometry">
            <Array as="points">
              <mxPoint x="467" y="-37" />
            </Array>
          </mxGeometry>
        </mxCell>
        <mxCell id="label20" value="film_id" style="edgeLabel;resizable=0;html=1;align=left;verticalAlign=top;strokeColor=#457B9D;rounded=1;labelBackgroundColor=none;fontColor=#1D3557;" parent="edge3" vertex="1" connectable="0">
          <mxGeometry x="480" y="-30" as="geometry" />
        </mxCell>
        <mxCell id="edge9" value="" style="html=1;rounded=1;edgeStyle=orthogonalEdgeStyle;dashed=0;startArrow=none;endArrow=block;endSize=12;strokeColor=#457B9D;exitX=0.500;exitY=0.000;exitDx=0;exitDy=0;entryX=0.395;entryY=1.000;entryDx=0;entryDy=0;labelBackgroundColor=none;fontColor=default;" parent="1" source="node5" target="node0" edge="1">
          <mxGeometry width="50" height="50" relative="1" as="geometry">
            <Array as="points" />
          </mxGeometry>
        </mxCell>
        <mxCell id="label56" value="film_id" style="edgeLabel;resizable=0;html=1;align=left;verticalAlign=top;strokeColor=#457B9D;rounded=1;labelBackgroundColor=none;fontColor=#1D3557;" parent="edge9" vertex="1" connectable="0">
          <mxGeometry x="197" y="155" as="geometry" />
        </mxCell>
        <mxCell id="edge14" value="" style="html=1;rounded=1;edgeStyle=orthogonalEdgeStyle;dashed=0;startArrow=none;endArrow=block;endSize=12;strokeColor=#457B9D;exitX=0.500;exitY=0.000;exitDx=0;exitDy=0;entryX=0.500;entryY=1.000;entryDx=0;entryDy=0;labelBackgroundColor=none;fontColor=default;" parent="1" source="node6" target="node11" edge="1">
          <mxGeometry width="50" height="50" relative="1" as="geometry">
            <Array as="points" />
          </mxGeometry>
        </mxCell>
        <mxCell id="label86" value="customer_id" style="edgeLabel;resizable=0;html=1;align=left;verticalAlign=top;strokeColor=#457B9D;rounded=1;labelBackgroundColor=none;fontColor=#1D3557;" parent="edge14" vertex="1" connectable="0">
          <mxGeometry x="-306" y="607" as="geometry" />
        </mxCell>
        <mxCell id="edge17" value="" style="html=1;rounded=1;edgeStyle=orthogonalEdgeStyle;dashed=0;startArrow=none;endArrow=block;endSize=12;strokeColor=#457B9D;exitX=1.000;exitY=0.330;exitDx=0;exitDy=0;entryX=0.305;entryY=1.000;entryDx=0;entryDy=0;labelBackgroundColor=none;fontColor=default;" parent="1" source="node6" target="node12" edge="1">
          <mxGeometry width="50" height="50" relative="1" as="geometry">
            <Array as="points">
              <mxPoint x="-18" y="690" />
            </Array>
          </mxGeometry>
        </mxCell>
        <mxCell id="label104" value="rental_id" style="edgeLabel;resizable=0;html=1;align=left;verticalAlign=top;strokeColor=#457B9D;rounded=1;labelBackgroundColor=none;fontColor=#1D3557;" parent="edge17" vertex="1" connectable="0">
          <mxGeometry x="-66" y="562" as="geometry" />
        </mxCell>
        <mxCell id="edge0" value="" style="html=1;rounded=1;edgeStyle=orthogonalEdgeStyle;dashed=0;startArrow=none;endArrow=block;endSize=12;strokeColor=#457B9D;exitX=0.004;exitY=0.503;exitDx=0;exitDy=0;entryX=0.205;entryY=1.000;entryDx=0;entryDy=0;labelBackgroundColor=none;fontColor=default;" parent="1" source="node6" target="node2" edge="1">
          <mxGeometry width="50" height="50" relative="1" as="geometry">
            <Array as="points">
              <mxPoint x="-399" y="718" />
              <mxPoint x="-399" y="718" />
              <mxPoint x="-527" y="718" />
            </Array>
          </mxGeometry>
        </mxCell>
        <mxCell id="label2" value="staff_id" style="edgeLabel;resizable=0;html=1;align=left;verticalAlign=top;strokeColor=#457B9D;rounded=1;labelBackgroundColor=none;fontColor=#1D3557;" parent="edge0" vertex="1" connectable="0">
          <mxGeometry x="-412.5" y="690" as="geometry" />
        </mxCell>
        <mxCell id="edge8" value="" style="html=1;rounded=1;edgeStyle=orthogonalEdgeStyle;dashed=0;startArrow=none;endArrow=block;endSize=12;strokeColor=#457B9D;exitX=0.000;exitY=0.420;exitDx=0;exitDy=0;entryX=1.000;entryY=0.178;entryDx=0;entryDy=0;labelBackgroundColor=none;fontColor=default;" parent="1" source="node12" target="node11" edge="1">
          <mxGeometry width="50" height="50" relative="1" as="geometry">
            <Array as="points" />
          </mxGeometry>
        </mxCell>
        <mxCell id="label50" value="customer_id" style="edgeLabel;resizable=0;html=1;align=left;verticalAlign=top;strokeColor=#457B9D;rounded=1;labelBackgroundColor=none;fontColor=#1D3557;" parent="edge8" vertex="1" connectable="0">
          <mxGeometry x="-146" y="365" as="geometry" />
        </mxCell>
        <mxCell id="edge7" value="" style="html=1;rounded=1;edgeStyle=orthogonalEdgeStyle;dashed=0;startArrow=none;endArrow=block;endSize=12;strokeColor=#457B9D;entryX=0.000;entryY=0.851;entryDx=0;entryDy=0;labelBackgroundColor=none;fontColor=default;" parent="1" source="node12" target="node5" edge="1">
          <mxGeometry width="50" height="50" relative="1" as="geometry">
            <Array as="points" />
            <mxPoint x="100" y="298" as="sourcePoint" />
          </mxGeometry>
        </mxCell>
        <mxCell id="label44" value="inventory_id" style="edgeLabel;resizable=0;html=1;align=left;verticalAlign=top;strokeColor=#457B9D;rounded=1;labelBackgroundColor=none;fontColor=#1D3557;" parent="edge7" vertex="1" connectable="0">
          <mxGeometry x="93" y="257" as="geometry" />
        </mxCell>
        <mxCell id="edge5" value="" style="html=1;rounded=1;edgeStyle=orthogonalEdgeStyle;dashed=0;startArrow=none;endArrow=block;endSize=12;strokeColor=#457B9D;exitX=0.769;exitY=1.000;exitDx=0;exitDy=0;entryX=0.000;entryY=0.500;entryDx=0;entryDy=0;labelBackgroundColor=none;fontColor=default;" parent="1" source="node12" target="node2" edge="1">
          <mxGeometry width="50" height="50" relative="1" as="geometry">
            <Array as="points">
              <mxPoint x="56" y="596" />
              <mxPoint x="56" y="596" />
              <mxPoint x="56" y="820" />
              <mxPoint x="-605" y="820" />
              <mxPoint x="-605" y="168" />
              <mxPoint x="-590" y="168" />
              <mxPoint x="-590" y="168" />
            </Array>
          </mxGeometry>
        </mxCell>
        <mxCell id="label32" value="staff_id" style="edgeLabel;resizable=0;html=1;align=left;verticalAlign=top;strokeColor=#457B9D;rounded=1;labelBackgroundColor=none;fontColor=#1D3557;" parent="edge5" vertex="1" connectable="0">
          <mxGeometry x="60" y="551" as="geometry" />
        </mxCell>
        <mxCell id="edge6" value="" style="html=1;rounded=1;edgeStyle=orthogonalEdgeStyle;dashed=0;startArrow=none;endArrow=block;endSize=12;strokeColor=#457B9D;exitX=1.000;exitY=0.500;exitDx=0;exitDy=0;entryX=0.000;entryY=0.500;entryDx=0;entryDy=0;labelBackgroundColor=none;fontColor=default;" parent="1" source="node2" target="node3" edge="1">
          <mxGeometry width="50" height="50" relative="1" as="geometry">
            <Array as="points">
              <mxPoint x="-346" y="168" />
              <mxPoint x="-346" y="168" />
            </Array>
          </mxGeometry>
        </mxCell>
        <mxCell id="label38" value="address_id" style="edgeLabel;resizable=0;html=1;align=left;verticalAlign=top;strokeColor=#457B9D;rounded=1;labelBackgroundColor=none;fontColor=#1D3557;" parent="edge6" vertex="1" connectable="0">
          <mxGeometry x="-390" y="140" as="geometry" />
        </mxCell>
        <mxCell id="edge13" value="" style="html=1;rounded=1;edgeStyle=orthogonalEdgeStyle;dashed=0;startArrow=none;endArrow=block;endSize=12;strokeColor=#457B9D;exitX=0.886;exitY=0.000;exitDx=0;exitDy=0;entryX=0.000;entryY=0.685;entryDx=0;entryDy=0;labelBackgroundColor=none;fontColor=default;" parent="1" source="node8" target="node3" edge="1">
          <mxGeometry width="50" height="50" relative="1" as="geometry">
            <Array as="points">
              <mxPoint x="-346" y="207" />
            </Array>
          </mxGeometry>
        </mxCell>
        <mxCell id="label80" value="address_id" style="edgeLabel;resizable=0;html=1;align=left;verticalAlign=top;strokeColor=#457B9D;rounded=1;labelBackgroundColor=none;fontColor=#1D3557;" parent="edge13" vertex="1" connectable="0">
          <mxGeometry x="-350" y="273" as="geometry" />
        </mxCell>
        <mxCell id="edge15" value="" style="html=1;rounded=1;edgeStyle=orthogonalEdgeStyle;dashed=0;startArrow=none;endArrow=block;endSize=12;strokeColor=#457B9D;exitX=0.108;exitY=0.000;exitDx=0;exitDy=0;entryX=0.500;entryY=1.000;entryDx=0;entryDy=0;labelBackgroundColor=none;fontColor=default;" parent="1" source="node8" target="node2" edge="1">
          <mxGeometry width="50" height="50" relative="1" as="geometry">
            <Array as="points" />
          </mxGeometry>
        </mxCell>
        <mxCell id="label92" value="manager_staff_id:staff_id" style="edgeLabel;resizable=0;html=1;align=left;verticalAlign=top;strokeColor=#457B9D;rounded=1;labelBackgroundColor=none;fontColor=#1D3557;" parent="edge15" vertex="1" connectable="0">
          <mxGeometry x="-520" y="330" as="geometry" />
        </mxCell>
      </root>
    </mxGraphModel>
  </diagram>
</mxfile>
